# xmcd CD database file
#
# Track frame offsets:
#	150
#	16297
#	35910
#	62270
#	82310
#	97097
#	111067
#	124130
#	150090
#	169577
#	186250
#	200130
#	220560
#	237632
#	254735
#	268362
#	286502
#	308565
#	325542
#	340340
#
# Disc length: 4715 seconds
#
# Revision: 14
# Processed by: cddbd v1.5.1PL2 Copyright (c) Steve Scherf et al.
# Submitted via: CDex 1.51
#
DISCID=21126914
DTITLE=ABBA - More Abba Gold
DYEAR=2003
DGENRE=Pop
TTITLE0=Summer Night City
TTITLE1=Angeleyes
TTITLE2=The Day Before You Came
TTITLE3=Eagle
TTITLE4=I Do, I Do, I Do, I Do, I Do
TTITLE5=So Long
TTITLE6=Honey Honey
TTITLE7=The Visitors
TTITLE8=Our Last Summer
TTITLE9=On And On And On
TTITLE10=Ring Ring
TTITLE11=I Wonder (Departure)
TTITLE12=Lovelight
TTITLE13=Head Over Heels
TTITLE14=When I Kissed The Teacher
TTITLE15=I Am The City
TTITLE16=Cassandra
TTITLE17=Under Attack
TTITLE18=When All Is Said And Done
TTITLE19=The Way Old Friends Do
EXTD=YEAR: 2003
EXTT0=
EXTT1=
EXTT2=
EXTT3=
EXTT4=
EXTT5=
EXTT6=
EXTT7=
EXTT8=
EXTT9=
EXTT10=
EXTT11=
EXTT12=
EXTT13=
EXTT14=
EXTT15=
EXTT16=
EXTT17=
EXTT18=
EXTT19=
PLAYORDER=
